<svg xmlns="http://www.w3.org/2000/svg" width="114px" height="57.21px" viewBox="0 0 114 57.21">
<g>
	<g>
		<path fill="#111111" d="M50.278,37.991H18.111l2.768-5.691h9.139c1.118,0,2.025-0.907,2.025-2.025
			c0-1.118-0.907-2.025-2.025-2.025h-7.169l2.768-5.69h8.829c1.118,0,2.025-0.907,2.025-2.025c0-1.118-0.907-2.025-2.025-2.025
			h-6.859l2.531-5.203h7.773c1.118,0,2.025-0.907,2.025-2.025c0-1.118-0.907-2.025-2.025-2.025h-5.803l3.087-6.346
			c0.489-1.006,0.071-2.218-0.935-2.707c-1.005-0.489-2.217-0.07-2.707,0.935l-3.948,8.117h-7.987c-1.118,0-2.025,0.907-2.025,2.025
			c0,1.118,0.907,2.025,2.025,2.025h6.017l-2.531,5.203H11.559c-1.118,0-2.025,0.907-2.025,2.025c0,1.118,0.907,2.025,2.025,2.025
			h9.553l-7.506,15.431H7.411l0.813-1.671c0.489-1.006,0.07-2.218-0.935-2.707c-1.005-0.488-2.217-0.071-2.707,0.935l-4.377,8.999
			c-0.489,1.006-0.07,2.218,0.935,2.707c0.285,0.139,0.587,0.205,0.884,0.205c0.751,0,1.472-0.42,1.823-1.14l1.595-3.278h44.837
			c1.118,0,2.025-0.907,2.025-2.025C52.304,38.898,51.397,37.991,50.278,37.991z"/>
		<path fill="#111111" d="M60.131,10.188c-0.378-0.544-1-0.869-1.662-0.869H45.238c-1.118,0-2.025,0.907-2.025,2.025
			c0,1.118,0.907,2.025,2.025,2.025h10.32l-1.953,5.269H41.784c-0.827,0-1.571,0.503-1.879,1.271L34.94,32.279
			c-0.251,0.624-0.175,1.332,0.202,1.889c0.377,0.557,1.005,0.891,1.678,0.891h16.019c1.118,0,2.025-0.907,2.025-2.025
			c0-1.118-0.907-2.025-2.025-2.025H39.814l3.339-8.319h11.861c0.847,0,1.604-0.527,1.899-1.321l3.455-9.32
			C60.598,11.427,60.51,10.732,60.131,10.188z"/>
	</g>
	<path fill="#C11B4F" d="M113.692,17.141c-0.37-0.592-1.019-0.951-1.717-0.951h-8.656l2.745-5.72
		c0.465-0.969,0.057-2.131-0.912-2.596c-0.967-0.464-2.13-0.057-2.595,0.912l-3.553,7.404H94.48c-1.118,0-2.025,0.907-2.025,2.025
		s0.907,2.025,2.025,2.025h2.58l-6.766,14.099c-0.465,0.969-0.057,2.13,0.912,2.595c0.271,0.13,0.558,0.192,0.84,0.192
		c0.725,0,1.42-0.407,1.755-1.104l7.574-15.782h7.362L97.955,42.409h-6.436c-1.118,0-2.025,0.907-2.025,2.025
		c0,1.118,0.907,2.025,2.025,2.025h7.703c0.775,0,1.482-0.442,1.821-1.139L113.796,19.1
		C114.101,18.473,114.062,17.732,113.692,17.141z"/>
	<path fill="#111111" d="M94.664,10.432h-8.592l1.304-2.717l7.435-0.563c1.071-0.081,1.874-1.015,1.793-2.087
		c-0.081-1.071-1.01-1.871-2.086-1.793L74.717,4.771c-1.071,0.081-1.874,1.015-1.793,2.087c0.077,1.021,0.93,1.799,1.938,1.799
		c0.049,0,0.099-0.002,0.149-0.006l7.888-0.597l-1.141,2.378H71.268c-1.074,0-1.945,0.871-1.945,1.945s0.871,1.945,1.945,1.945
		h8.622l-0.934,1.947h-6.144c-0.707,0-1.358,0.383-1.701,1.001l-6.52,11.741c-0.335,0.602-0.326,1.337,0.024,1.931
		c0.349,0.594,0.987,0.959,1.676,0.959h5.163l-0.783,1.632H60.457c-1.074,0-1.945,0.871-1.945,1.945
		c0,1.074,0.871,1.945,1.945,1.945h8.347l-1.427,2.974H56.426c-1.074,0-1.945,0.871-1.945,1.945s0.871,1.945,1.945,1.945h12.167
		c0.002,0,0.005,0,0.007,0c0.002,0,0.004,0,0.006,0h11.216c1.074,0,1.945-0.871,1.945-1.945s-0.871-1.945-1.945-1.945h-8.13
		l1.427-2.974h10.734c1.074,0,1.945-0.871,1.945-1.945c0-1.074-0.871-1.945-1.945-1.945h-8.867l0.783-1.632h6.009
		c0.707,0,1.358-0.383,1.701-1.001L90,19.159c0.335-0.602,0.326-1.337-0.024-1.931c-0.349-0.594-0.987-0.959-1.676-0.959h-5.028
		l0.934-1.947h10.459c1.074,0,1.945-0.871,1.945-1.945S95.739,10.432,94.664,10.432z M77.089,20.16l-0.825,1.718h-3.262l0.954-1.718
		H77.089z M69.597,28.01l1.245-2.241h3.555l-1.076,2.241H69.597z M80.634,28.01h-2.997l1.076-2.241h3.167L80.634,28.01z
		 M84.994,20.16l-0.958,1.726c-0.026-0.001-0.05-0.008-0.076-0.008h-3.38l0.825-1.718H84.994z"/>
	<g>
		<polygon fill="#111111" points="41.282,51.549 39.986,51.549 38.764,53.874 38.764,51.549 37.63,51.549 37.63,57.137 
			38.764,57.137 38.764,55.712 39.306,54.805 40.27,57.137 41.501,57.137 40.027,53.623 		"/>
		<rect x="42.927" y="51.549" fill="#111111" width="1.134" height="5.588"/>
		<path fill="#111111" d="M47.439,53.509c-0.462,0-0.834,0.373-0.834,0.834c0,0.462,0.372,0.834,0.834,0.834
			c0.462,0,0.834-0.373,0.834-0.834C48.273,53.898,47.916,53.509,47.439,53.509z"/>
		<path fill="#111111" d="M52.477,51.549h-1.733v5.588h1.733c1.085,0,1.838-0.656,1.838-2.43v-0.729
			C54.316,52.197,53.563,51.549,52.477,51.549z M53.182,54.708c0,0.939-0.121,1.466-0.704,1.466h-0.599v-3.661h0.599
			c0.583,0,0.704,0.527,0.704,1.466V54.708z"/>
		<path fill="#111111" d="M57.621,51.476c-1.118,0-1.847,0.745-1.847,2.47v0.793c0,1.725,0.729,2.47,1.847,2.47
			c1.117,0,1.847-0.745,1.847-2.47v-0.793C59.468,52.221,58.739,51.476,57.621,51.476z M58.334,54.74
			c0,1.118-0.227,1.515-0.713,1.515c-0.486,0-0.713-0.397-0.713-1.515v-0.793c0-1.118,0.227-1.514,0.713-1.514
			c0.486,0,0.713,0.397,0.713,1.514V54.74z"/>
		<path fill="#111111" d="M62.627,53.509c-0.462,0-0.834,0.373-0.834,0.834c0,0.462,0.373,0.834,0.834,0.834
			c0.461,0,0.834-0.373,0.834-0.834C63.461,53.898,63.105,53.509,62.627,53.509z"/>
		<path fill="#111111" d="M68.476,54.878c0,0.956-0.178,1.377-0.705,1.377c-0.526,0-0.705-0.421-0.705-1.377v-3.329h-1.134v3.329
			c0,1.644,0.753,2.332,1.838,2.332c1.085,0,1.839-0.689,1.839-2.332v-3.329h-1.134V54.878z"/>
		<rect x="73.046" y="53.916" fill="#111111" width="9.92" height="0.29"/>
		<rect x="23.619" y="53.916" fill="#111111" width="9.92" height="0.29"/>
	</g>
</g>
</svg>

